<svg xmlns="http://www.w3.org/2000/svg" xmlns:xlink="http://www.w3.org/1999/xlink" id="body_1" width="17" height="19">
  <g transform="matrix(0.7307693 0 0 0.7307693 0.096154176 -0)">
    <path d="M22.2251 9.75523L22.2251 8.643C 22.2251 8.02885 21.6456 7.53078 20.931 7.53078L20.931 7.53078L6.69586 7.53078C 5.98127 7.53078 5.40176 8.02885 5.40176 8.643L5.40176 8.643L5.40176 9.75523C 5.40176 10.3694 5.98127 10.8675 6.69586 10.8675L6.69586 10.8675L20.931 10.8675C 21.6456 10.8675 22.2251 10.3694 22.2251 9.75523zM22.2251 16.8101L22.2251 15.6978C 22.2251 15.0837 21.6456 14.5856 20.931 14.5856L20.931 14.5856L6.69586 14.5856C 5.98127 14.5856 5.40176 15.0837 5.40176 15.6978L5.40176 15.6978L5.40176 16.8101C 5.40176 17.4242 5.98127 17.9223 6.69586 17.9223L6.69586 17.9223L20.931 17.9223C 21.6456 17.9223 22.2251 17.4242 22.2251 16.8101zM22.2251 24.1094L22.2251 22.9971C 22.2251 22.383 21.6456 21.8849 20.931 21.8849L20.931 21.8849L6.69586 21.8849C 5.98127 21.8849 5.40176 22.383 5.40176 22.9971L5.40176 22.9971L5.40176 24.1094C 5.40176 24.7235 5.98127 25.2216 6.69586 25.2216L6.69586 25.2216L20.931 25.2216C 21.6456 25.2216 22.2251 24.7235 22.2251 24.1094z" stroke="none" fill="#4f4f4f" fill-rule="nonzero" />
    <path d="M22.2251 3.00287L22.2251 1.89064C 22.2251 1.27648 21.6456 0.778412 20.931 0.778412L20.931 0.778412L1.51945 0.778412C 0.174371 0.778411 0.225353 1.99641 0.225353 3.00287C 0.225353 3.61702 0.804867 4.11509 1.51945 4.11509L1.51945 4.11509L20.931 4.11509C 21.6456 4.11509 22.2251 3.61702 22.2251 3.00287z" stroke="none" fill="#4f4f4f" fill-rule="nonzero" />
    <path d="M4.10766 15.2454L2.1665 15.2454L2.1665 10.2225L4.10765 10.2225L4.10765 8.21804L2.1665 8.21804L2.1665 5.38672L0.225353 5.38672C 0.225353 5.38672 0.225349 15.3468 0.225348 22.9971C 0.225348 23.8783 0.922542 24.5952 1.77867 24.5952L1.77867 24.5952L4.10766 24.5952L4.10766 22.5981L2.1665 22.5981L2.1665 17.2424L4.10766 17.2424L4.10766 15.2454z" stroke="none" fill="#4f4f4f" fill-rule="nonzero" />
  </g>
</svg>